<svg width="559" height="365" viewBox="0 0 559 365" fill="none" xmlns="http://www.w3.org/2000/svg">
<path d="M317.947 142.664C311.586 142.664 306.411 138.31 306.411 132.957C306.411 127.604 311.586 123.249 317.947 123.249C324.309 123.249 329.484 127.604 329.484 132.957C329.484 135.772 331.832 138.055 334.728 138.055C337.623 138.055 339.972 135.772 339.972 132.957C339.972 123.615 332.812 115.76 323.191 113.628V110.976C323.191 108.161 320.843 105.878 317.947 105.878C315.052 105.878 312.703 108.161 312.703 110.976V113.628C303.083 115.76 295.923 123.615 295.923 132.957C295.923 143.932 305.803 152.86 317.947 152.86C324.309 152.86 329.484 157.215 329.484 162.568C329.484 167.921 324.309 172.276 317.947 172.276C311.586 172.276 306.411 167.921 306.411 162.568C306.411 159.753 304.062 157.47 301.167 157.47C298.271 157.47 295.923 159.753 295.923 162.568C295.923 171.91 303.083 179.765 312.703 181.897V184.1C312.703 186.915 315.052 189.198 317.947 189.198C320.843 189.198 323.191 186.915 323.191 184.1V181.897C332.812 179.765 339.972 171.91 339.972 162.568C339.972 151.593 330.092 142.664 317.947 142.664Z" fill="#FF872C"/>
<path d="M338.544 75.8435C337.993 74.566 337.317 73.362 336.531 72.2453H348.328C359.821 72.2453 369.171 63.1547 369.171 51.9814C369.171 40.808 359.821 31.7175 348.328 31.7175H312.042C314.348 28.4567 315.703 24.5119 315.703 20.2639C315.703 9.09058 306.352 0 294.859 0H183.844C172.351 0 163 9.09058 163 20.2639C163 31.4373 172.351 40.5279 183.844 40.5279H220.13C217.823 43.7886 216.469 47.7335 216.469 51.9814C216.469 56.2293 217.823 60.1742 220.13 63.4349H208.312C196.819 63.4349 187.469 72.5255 187.469 83.6988C187.469 90.1159 190.556 95.8422 195.36 99.5576C190.556 103.273 187.469 108.999 187.469 115.416C187.469 121.833 190.556 127.56 195.36 131.275C190.556 134.99 187.469 140.717 187.469 147.134C187.469 153.551 190.556 159.277 195.36 162.992C190.556 166.708 187.469 172.434 187.469 178.851C187.469 190.025 196.819 199.115 208.312 199.115H261.713C275.781 213.743 295.793 222.904 317.969 222.904C360.444 222.904 395 189.309 395 148.015C395 113.647 371.061 84.6164 338.544 75.8435ZM348.328 40.5279C354.824 40.5279 360.109 45.6661 360.109 51.9814C360.109 58.2967 354.824 63.4349 348.328 63.4349H319.328H237.312C230.816 63.4349 225.531 58.2967 225.531 51.9814C225.531 45.6661 230.816 40.5279 237.312 40.5279H348.328ZM183.844 31.7175C177.347 31.7175 172.062 26.5792 172.062 20.2639C172.062 13.9486 177.347 8.8104 183.844 8.8104H294.859C301.356 8.8104 306.64 13.9486 306.64 20.2639C306.64 26.5792 301.356 31.7175 294.859 31.7175H183.844ZM208.312 72.2453H319.328C321.153 72.2453 322.901 72.6576 324.469 73.396C322.325 73.2211 320.158 73.1268 317.969 73.1268C296.697 73.1268 277.412 81.5535 263.459 95.1524H208.312C201.816 95.1524 196.531 90.0141 196.531 83.6988C196.531 77.3835 201.816 72.2453 208.312 72.2453ZM208.312 103.963H255.716C250.572 110.814 246.595 118.542 244.069 126.87H208.312C201.816 126.87 196.531 121.732 196.531 115.416C196.531 109.101 201.816 103.963 208.312 103.963ZM208.312 135.68H241.989C241.301 139.695 240.938 143.814 240.938 148.015C240.938 151.604 241.205 155.132 241.709 158.587H208.312C201.816 158.587 196.531 153.449 196.531 147.134C196.531 140.818 201.816 135.68 208.312 135.68ZM208.312 190.305C201.816 190.305 196.531 185.167 196.531 178.851C196.531 172.535 201.816 167.398 208.312 167.398H243.559C245.846 175.685 249.56 183.409 254.431 190.305H208.312ZM317.969 214.093C280.491 214.093 250 184.451 250 148.015C250 111.58 280.491 81.9372 317.969 81.9372C355.447 81.9372 385.938 111.58 385.938 148.015C385.938 184.451 355.447 214.093 317.969 214.093Z" fill="#FF872C"/>
<path d="M28.5901 284.24C32.6861 284.24 36.3021 285.072 39.4381 286.736C42.6381 288.336 45.1341 290.352 46.9261 292.784V285.104H57.9661V338.864C57.9661 343.728 56.9421 348.048 54.8941 351.824C52.8461 355.664 49.8701 358.672 45.9661 360.848C42.1261 363.024 37.5181 364.112 32.1421 364.112C24.9741 364.112 19.0221 362.416 14.2861 359.024C9.55013 355.696 6.86213 351.152 6.22213 345.392H17.0701C17.9021 348.144 19.6621 350.352 22.3501 352.016C25.1021 353.744 28.3661 354.608 32.1421 354.608C36.5581 354.608 40.1101 353.264 42.7981 350.576C45.5501 347.888 46.9261 343.984 46.9261 338.864V330.032C45.0701 332.528 42.5421 334.64 39.3421 336.368C36.2061 338.032 32.6221 338.864 28.5901 338.864C23.9821 338.864 19.7581 337.712 15.9181 335.408C12.1421 333.04 9.13413 329.776 6.89413 325.616C4.71813 321.392 3.63013 316.624 3.63013 311.312C3.63013 306 4.71813 301.296 6.89413 297.2C9.13413 293.104 12.1421 289.936 15.9181 287.696C19.7581 285.392 23.9821 284.24 28.5901 284.24ZM46.9261 311.504C46.9261 307.856 46.1581 304.688 44.6221 302C43.1501 299.312 41.1981 297.264 38.7661 295.856C36.3341 294.448 33.7101 293.744 30.8941 293.744C28.0781 293.744 25.4541 294.448 23.0221 295.856C20.5901 297.2 18.6061 299.216 17.0701 301.904C15.5981 304.528 14.8621 307.664 14.8621 311.312C14.8621 314.96 15.5981 318.16 17.0701 320.912C18.6061 323.664 20.5901 325.776 23.0221 327.248C25.5181 328.656 28.1421 329.36 30.8941 329.36C33.7101 329.36 36.3341 328.656 38.7661 327.248C41.1981 325.84 43.1501 323.792 44.6221 321.104C46.1581 318.352 46.9261 315.152 46.9261 311.504ZM95.2846 338.864C90.2926 338.864 85.7806 337.744 81.7486 335.504C77.7166 333.2 74.5486 330 72.2446 325.904C69.9406 321.744 68.7886 316.944 68.7886 311.504C68.7886 306.128 69.9726 301.36 72.3406 297.2C74.7086 293.04 77.9406 289.84 82.0366 287.6C86.1326 285.36 90.7086 284.24 95.7646 284.24C100.821 284.24 105.397 285.36 109.493 287.6C113.589 289.84 116.821 293.04 119.189 297.2C121.557 301.36 122.741 306.128 122.741 311.504C122.741 316.88 121.525 321.648 119.093 325.808C116.661 329.968 113.333 333.2 109.109 335.504C104.949 337.744 100.341 338.864 95.2846 338.864ZM95.2846 329.36C98.1006 329.36 100.725 328.688 103.157 327.344C105.653 326 107.669 323.984 109.205 321.296C110.741 318.608 111.509 315.344 111.509 311.504C111.509 307.664 110.773 304.432 109.301 301.808C107.829 299.12 105.877 297.104 103.445 295.76C101.013 294.416 98.3886 293.744 95.5726 293.744C92.7566 293.744 90.1326 294.416 87.7006 295.76C85.3326 297.104 83.4446 299.12 82.0366 301.808C80.6286 304.432 79.9246 307.664 79.9246 311.504C79.9246 317.2 81.3646 321.616 84.2446 324.752C87.1886 327.824 90.8686 329.36 95.2846 329.36ZM172.823 271.28V280.208H144.503V299.888H166.583V308.816H144.503V338H133.559V271.28H172.823ZM188.534 278.096C186.55 278.096 184.886 277.424 183.542 276.08C182.198 274.736 181.526 273.072 181.526 271.088C181.526 269.104 182.198 267.44 183.542 266.096C184.886 264.752 186.55 264.08 188.534 264.08C190.454 264.08 192.086 264.752 193.43 266.096C194.774 267.44 195.446 269.104 195.446 271.088C195.446 273.072 194.774 274.736 193.43 276.08C192.086 277.424 190.454 278.096 188.534 278.096ZM193.91 285.104V338H182.966V285.104H193.91ZM234.966 284.24C239.126 284.24 242.838 285.104 246.102 286.832C249.43 288.56 252.022 291.12 253.878 294.512C255.734 297.904 256.662 302 256.662 306.8V338H245.814V308.432C245.814 303.696 244.63 300.08 242.262 297.584C239.894 295.024 236.662 293.744 232.566 293.744C228.47 293.744 225.206 295.024 222.774 297.584C220.406 300.08 219.222 303.696 219.222 308.432V338H208.278V285.104H219.222V291.152C221.014 288.976 223.286 287.28 226.038 286.064C228.854 284.848 231.83 284.24 234.966 284.24ZM266.974 311.312C266.974 306 268.062 301.296 270.238 297.2C272.478 293.104 275.486 289.936 279.262 287.696C283.102 285.392 287.326 284.24 291.934 284.24C296.094 284.24 299.71 285.072 302.782 286.736C305.918 288.336 308.414 290.352 310.27 292.784V285.104H321.31V338H310.27V330.128C308.414 332.624 305.886 334.704 302.686 336.368C299.486 338.032 295.838 338.864 291.742 338.864C287.198 338.864 283.038 337.712 279.262 335.408C275.486 333.04 272.478 329.776 270.238 325.616C268.062 321.392 266.974 316.624 266.974 311.312ZM310.27 311.504C310.27 307.856 309.502 304.688 307.966 302C306.494 299.312 304.542 297.264 302.11 295.856C299.678 294.448 297.054 293.744 294.238 293.744C291.422 293.744 288.798 294.448 286.366 295.856C283.934 297.2 281.95 299.216 280.414 301.904C278.942 304.528 278.206 307.664 278.206 311.312C278.206 314.96 278.942 318.16 280.414 320.912C281.95 323.664 283.934 325.776 286.366 327.248C288.862 328.656 291.486 329.36 294.238 329.36C297.054 329.36 299.678 328.656 302.11 327.248C304.542 325.84 306.494 323.792 307.966 321.104C309.502 318.352 310.27 315.152 310.27 311.504ZM362.372 284.24C366.532 284.24 370.244 285.104 373.508 286.832C376.836 288.56 379.428 291.12 381.284 294.512C383.14 297.904 384.068 302 384.068 306.8V338H373.22V308.432C373.22 303.696 372.036 300.08 369.668 297.584C367.3 295.024 364.068 293.744 359.972 293.744C355.876 293.744 352.612 295.024 350.18 297.584C347.812 300.08 346.628 303.696 346.628 308.432V338H335.684V285.104H346.628V291.152C348.42 288.976 350.692 287.28 353.444 286.064C356.26 284.848 359.236 284.24 362.372 284.24ZM394.38 311.504C394.38 306.064 395.468 301.296 397.644 297.2C399.884 293.04 402.956 289.84 406.86 287.6C410.764 285.36 415.244 284.24 420.3 284.24C426.7 284.24 431.98 285.776 436.14 288.848C440.364 291.856 443.212 296.176 444.684 301.808H432.876C431.916 299.184 430.38 297.136 428.268 295.664C426.156 294.192 423.5 293.456 420.3 293.456C415.82 293.456 412.236 295.056 409.548 298.256C406.924 301.392 405.612 305.808 405.612 311.504C405.612 317.2 406.924 321.648 409.548 324.848C412.236 328.048 415.82 329.648 420.3 329.648C426.636 329.648 430.828 326.864 432.876 321.296H444.684C443.148 326.672 440.268 330.96 436.044 334.16C431.82 337.296 426.572 338.864 420.3 338.864C415.244 338.864 410.764 337.744 406.86 335.504C402.956 333.2 399.884 330 397.644 325.904C395.468 321.744 394.38 316.944 394.38 311.504ZM504.071 310.256C504.071 312.24 503.943 314.032 503.687 315.632H463.271C463.591 319.856 465.159 323.248 467.975 325.808C470.791 328.368 474.247 329.648 478.343 329.648C484.231 329.648 488.391 327.184 490.823 322.256H502.631C501.031 327.12 498.119 331.12 493.895 334.256C489.735 337.328 484.551 338.864 478.343 338.864C473.287 338.864 468.743 337.744 464.711 335.504C460.743 333.2 457.607 330 455.303 325.904C453.063 321.744 451.943 316.944 451.943 311.504C451.943 306.064 453.031 301.296 455.207 297.2C457.447 293.04 460.551 289.84 464.519 287.6C468.551 285.36 473.159 284.24 478.343 284.24C483.335 284.24 487.783 285.328 491.687 287.504C495.591 289.68 498.631 292.752 500.807 296.72C502.983 300.624 504.071 305.136 504.071 310.256ZM492.647 306.8C492.583 302.768 491.143 299.536 488.327 297.104C485.511 294.672 482.023 293.456 477.863 293.456C474.087 293.456 470.855 294.672 468.167 297.104C465.479 299.472 463.879 302.704 463.367 306.8H492.647ZM534.041 338.864C529.881 338.864 526.137 338.128 522.809 336.656C519.545 335.12 516.953 333.072 515.033 330.512C513.113 327.888 512.089 324.976 511.961 321.776H523.289C523.481 324.016 524.537 325.904 526.457 327.44C528.441 328.912 530.905 329.648 533.849 329.648C536.921 329.648 539.289 329.072 540.953 327.92C542.681 326.704 543.545 325.168 543.545 323.312C543.545 321.328 542.585 319.856 540.665 318.896C538.809 317.936 535.833 316.88 531.737 315.728C527.769 314.64 524.537 313.584 522.041 312.56C519.545 311.536 517.369 309.968 515.513 307.856C513.721 305.744 512.825 302.96 512.825 299.504C512.825 296.688 513.657 294.128 515.321 291.824C516.985 289.456 519.353 287.6 522.425 286.256C525.561 284.912 529.145 284.24 533.177 284.24C539.193 284.24 544.025 285.776 547.673 288.848C551.385 291.856 553.369 295.984 553.625 301.232H542.681C542.489 298.864 541.529 296.976 539.801 295.568C538.073 294.16 535.737 293.456 532.793 293.456C529.913 293.456 527.705 294 526.169 295.088C524.633 296.176 523.865 297.616 523.865 299.408C523.865 300.816 524.377 302 525.401 302.96C526.425 303.92 527.673 304.688 529.145 305.264C530.617 305.776 532.793 306.448 535.673 307.28C539.513 308.304 542.649 309.36 545.081 310.448C547.577 311.472 549.721 313.008 551.513 315.056C553.305 317.104 554.233 319.824 554.297 323.216C554.297 326.224 553.465 328.912 551.801 331.28C550.137 333.648 547.769 335.504 544.697 336.848C541.689 338.192 538.137 338.864 534.041 338.864Z" fill="#FDFCFC"/>
</svg>
